<mxfile host="app.diagrams.net" agent="Mozilla/5.0 (Macintosh; Intel Mac OS X 10_15_7) AppleWebKit/537.36 (KHTML, like Gecko) Chrome/131.0.0.0 Safari/537.36 Edg/131.0.0.0" version="26.0.2">
  <diagram id="C5RBs43oDa-KdzZeNtuy" name="Page-1">
    <mxGraphModel dx="1828" dy="1013" grid="0" gridSize="10" guides="1" tooltips="1" connect="1" arrows="1" fold="1" page="1" pageScale="1" pageWidth="1169" pageHeight="827" background="#ffffff" math="0" shadow="0">
      <root>
        <mxCell id="WIyWlLk6GJQsqaUBKTNV-0" />
        <mxCell id="WIyWlLk6GJQsqaUBKTNV-1" parent="WIyWlLk6GJQsqaUBKTNV-0" />
        <mxCell id="HCpG3zF6ANzsHjrGuF-1-31" value="" style="endArrow=classic;html=1;rounded=0;hachureGap=4;fontFamily=Architects Daughter;fontSource=https%3A%2F%2Ffonts.googleapis.com%2Fcss%3Ffamily%3DArchitects%2BDaughter;fillColor=#dae8fc;strokeColor=#6c8ebf;entryX=0.783;entryY=0.007;entryDx=0;entryDy=0;entryPerimeter=0;exitX=0.556;exitY=1;exitDx=0;exitDy=0;exitPerimeter=0;" edge="1" parent="WIyWlLk6GJQsqaUBKTNV-1">
          <mxGeometry width="50" height="50" relative="1" as="geometry">
            <mxPoint x="140.8" y="516" as="sourcePoint" />
            <mxPoint x="140.8" y="537" as="targetPoint" />
            <Array as="points">
              <mxPoint x="140.8" y="526" />
            </Array>
          </mxGeometry>
        </mxCell>
        <mxCell id="HCpG3zF6ANzsHjrGuF-1-30" value="" style="endArrow=classic;html=1;rounded=0;hachureGap=4;fontFamily=Architects Daughter;fontSource=https%3A%2F%2Ffonts.googleapis.com%2Fcss%3Ffamily%3DArchitects%2BDaughter;fillColor=#dae8fc;strokeColor=#6c8ebf;entryX=0.783;entryY=0.007;entryDx=0;entryDy=0;entryPerimeter=0;exitX=0.556;exitY=1;exitDx=0;exitDy=0;exitPerimeter=0;" edge="1" parent="WIyWlLk6GJQsqaUBKTNV-1">
          <mxGeometry width="50" height="50" relative="1" as="geometry">
            <mxPoint x="308" y="517" as="sourcePoint" />
            <mxPoint x="308" y="538" as="targetPoint" />
            <Array as="points">
              <mxPoint x="308" y="527" />
            </Array>
          </mxGeometry>
        </mxCell>
        <mxCell id="HCpG3zF6ANzsHjrGuF-1-21" value="" style="endArrow=classic;html=1;rounded=0;hachureGap=4;fontFamily=Architects Daughter;fontSource=https%3A%2F%2Ffonts.googleapis.com%2Fcss%3Ffamily%3DArchitects%2BDaughter;fillColor=#dae8fc;strokeColor=#6c8ebf;entryX=0.783;entryY=0.007;entryDx=0;entryDy=0;entryPerimeter=0;exitX=0.556;exitY=1;exitDx=0;exitDy=0;exitPerimeter=0;" edge="1" parent="WIyWlLk6GJQsqaUBKTNV-1">
          <mxGeometry width="50" height="50" relative="1" as="geometry">
            <mxPoint x="140.8" y="395" as="sourcePoint" />
            <mxPoint x="140.8" y="416" as="targetPoint" />
          </mxGeometry>
        </mxCell>
        <mxCell id="HCpG3zF6ANzsHjrGuF-1-32" style="edgeStyle=orthogonalEdgeStyle;rounded=1;hachureGap=4;orthogonalLoop=1;jettySize=auto;html=1;entryX=0;entryY=0.5;entryDx=0;entryDy=0;fontFamily=Architects Daughter;fontSource=https%3A%2F%2Ffonts.googleapis.com%2Fcss%3Ffamily%3DArchitects%2BDaughter;curved=0;shadow=1;fillColor=#dae8fc;strokeColor=#6c8ebf;" edge="1" parent="WIyWlLk6GJQsqaUBKTNV-1" source="WIyWlLk6GJQsqaUBKTNV-3" target="WIyWlLk6GJQsqaUBKTNV-7">
          <mxGeometry relative="1" as="geometry">
            <Array as="points">
              <mxPoint x="100" y="284" />
            </Array>
          </mxGeometry>
        </mxCell>
        <mxCell id="HCpG3zF6ANzsHjrGuF-1-33" style="edgeStyle=orthogonalEdgeStyle;rounded=1;hachureGap=4;orthogonalLoop=1;jettySize=auto;html=1;fontFamily=Architects Daughter;fontSource=https%3A%2F%2Ffonts.googleapis.com%2Fcss%3Ffamily%3DArchitects%2BDaughter;shadow=1;curved=0;fillColor=#dae8fc;strokeColor=#6c8ebf;" edge="1" parent="WIyWlLk6GJQsqaUBKTNV-1" source="WIyWlLk6GJQsqaUBKTNV-3" target="HCpG3zF6ANzsHjrGuF-1-22">
          <mxGeometry relative="1" as="geometry">
            <Array as="points">
              <mxPoint x="38" y="503" />
            </Array>
          </mxGeometry>
        </mxCell>
        <mxCell id="WIyWlLk6GJQsqaUBKTNV-3" value="Cis-QTL in blood and kidney" style="rounded=1;whiteSpace=wrap;html=1;fontSize=12;glass=0;strokeWidth=1;shadow=1;spacing=3;fillColor=#ffe6cc;strokeColor=#d79b00;" parent="WIyWlLk6GJQsqaUBKTNV-1" vertex="1">
          <mxGeometry x="16" y="162" width="44" height="233" as="geometry" />
        </mxCell>
        <mxCell id="HCpG3zF6ANzsHjrGuF-1-11" value="" style="edgeStyle=orthogonalEdgeStyle;rounded=1;hachureGap=4;orthogonalLoop=1;jettySize=auto;html=1;fontFamily=Architects Daughter;fontSource=https%3A%2F%2Ffonts.googleapis.com%2Fcss%3Ffamily%3DArchitects%2BDaughter;shadow=1;curved=0;fillColor=#dae8fc;gradientColor=#7ea6e0;strokeColor=#6c8ebf;" edge="1" parent="WIyWlLk6GJQsqaUBKTNV-1" source="WIyWlLk6GJQsqaUBKTNV-7" target="HCpG3zF6ANzsHjrGuF-1-10">
          <mxGeometry relative="1" as="geometry" />
        </mxCell>
        <mxCell id="HCpG3zF6ANzsHjrGuF-1-18" value="" style="edgeStyle=orthogonalEdgeStyle;rounded=1;hachureGap=4;orthogonalLoop=1;jettySize=auto;html=1;fontFamily=Architects Daughter;fontSource=https%3A%2F%2Ffonts.googleapis.com%2Fcss%3Ffamily%3DArchitects%2BDaughter;shadow=1;fillColor=#dae8fc;strokeColor=#6c8ebf;curved=0;" edge="1" parent="WIyWlLk6GJQsqaUBKTNV-1" source="WIyWlLk6GJQsqaUBKTNV-7" target="HCpG3zF6ANzsHjrGuF-1-17">
          <mxGeometry relative="1" as="geometry">
            <Array as="points">
              <mxPoint x="217" y="323" />
              <mxPoint x="305" y="323" />
            </Array>
          </mxGeometry>
        </mxCell>
        <mxCell id="WIyWlLk6GJQsqaUBKTNV-7" value="Discovery data" style="rounded=1;whiteSpace=wrap;html=1;fontSize=11;glass=0;strokeWidth=1;shadow=1;fillColor=#dae8fc;strokeColor=#6c8ebf;" parent="WIyWlLk6GJQsqaUBKTNV-1" vertex="1">
          <mxGeometry x="149" y="266" width="136" height="35" as="geometry" />
        </mxCell>
        <mxCell id="FNJXxEcQ0V2-QxkDUnEU-2" value="" style="edgeStyle=orthogonalEdgeStyle;rounded=1;hachureGap=4;orthogonalLoop=1;jettySize=auto;html=1;fontFamily=Architects Daughter;fontSource=https%3A%2F%2Ffonts.googleapis.com%2Fcss%3Ffamily%3DArchitects%2BDaughter;shadow=1;curved=0;fillColor=#dae8fc;strokeColor=#6c8ebf;" parent="WIyWlLk6GJQsqaUBKTNV-1" source="WIyWlLk6GJQsqaUBKTNV-3" target="FNJXxEcQ0V2-QxkDUnEU-1" edge="1">
          <mxGeometry relative="1" as="geometry">
            <Array as="points">
              <mxPoint x="35" y="89" />
            </Array>
          </mxGeometry>
        </mxCell>
        <mxCell id="HCpG3zF6ANzsHjrGuF-1-4" value="" style="edgeStyle=orthogonalEdgeStyle;rounded=1;hachureGap=4;orthogonalLoop=1;jettySize=auto;html=1;fontFamily=Architects Daughter;fontSource=https%3A%2F%2Ffonts.googleapis.com%2Fcss%3Ffamily%3DArchitects%2BDaughter;curved=0;fillColor=#dae8fc;strokeColor=#6c8ebf;" edge="1" parent="WIyWlLk6GJQsqaUBKTNV-1" source="FNJXxEcQ0V2-QxkDUnEU-1" target="HCpG3zF6ANzsHjrGuF-1-3">
          <mxGeometry relative="1" as="geometry" />
        </mxCell>
        <mxCell id="HCpG3zF6ANzsHjrGuF-1-7" value="" style="edgeStyle=orthogonalEdgeStyle;rounded=1;hachureGap=4;orthogonalLoop=1;jettySize=auto;html=1;fontFamily=Architects Daughter;fontSource=https%3A%2F%2Ffonts.googleapis.com%2Fcss%3Ffamily%3DArchitects%2BDaughter;shadow=1;curved=0;fillColor=#dae8fc;strokeColor=#6c8ebf;" edge="1" parent="WIyWlLk6GJQsqaUBKTNV-1" source="FNJXxEcQ0V2-QxkDUnEU-1" target="HCpG3zF6ANzsHjrGuF-1-6">
          <mxGeometry relative="1" as="geometry">
            <Array as="points">
              <mxPoint x="219" y="138" />
              <mxPoint x="301" y="138" />
            </Array>
          </mxGeometry>
        </mxCell>
        <mxCell id="FNJXxEcQ0V2-QxkDUnEU-1" value="Potential drug-related resistant genes with kidney tissues" style="rounded=1;whiteSpace=wrap;html=1;fontSize=11;glass=0;strokeWidth=1;shadow=0;fillColor=#dae8fc;strokeColor=#6c8ebf;" parent="WIyWlLk6GJQsqaUBKTNV-1" vertex="1">
          <mxGeometry x="153" y="60" width="132" height="57" as="geometry" />
        </mxCell>
        <mxCell id="HCpG3zF6ANzsHjrGuF-1-0" value="" style="shape=mxgraph.signs.healthcare.genetics;html=1;pointerEvents=1;fillColor=#f8cecc;strokeColor=#b85450;verticalLabelPosition=bottom;verticalAlign=top;align=center;hachureGap=4;fontFamily=Architects Daughter;fontSource=https%3A%2F%2Ffonts.googleapis.com%2Fcss%3Ffamily%3DArchitects%2BDaughter;shadow=1;" vertex="1" parent="WIyWlLk6GJQsqaUBKTNV-1">
          <mxGeometry x="192" y="12" width="50" height="53" as="geometry" />
        </mxCell>
        <mxCell id="HCpG3zF6ANzsHjrGuF-1-3" value="&lt;div&gt;Drug resistence genes&lt;/div&gt;&lt;div&gt;- DRESIS (n=1,918)&lt;/div&gt;&lt;div&gt;&lt;span style=&quot;background-color: transparent; color: light-dark(rgb(0, 0, 0), rgb(255, 255, 255));&quot;&gt;- DGIdb (n=124)&lt;/span&gt;&lt;/div&gt;&lt;div&gt;Overall (n=1,921)&amp;nbsp;&lt;/div&gt;" style="rounded=1;whiteSpace=wrap;html=1;fontSize=10;glass=0;strokeWidth=1;shadow=1;fillColor=#dae8fc;strokeColor=#6c8ebf;align=left;spacing=21;" vertex="1" parent="WIyWlLk6GJQsqaUBKTNV-1">
          <mxGeometry x="64" y="162" width="154" height="70" as="geometry" />
        </mxCell>
        <mxCell id="HCpG3zF6ANzsHjrGuF-1-6" value="&lt;div&gt;Kidney tissue genes&lt;/div&gt;&lt;div&gt;- Glom-related genes(n=557)&amp;nbsp;&lt;/div&gt;&lt;div&gt;- Tube-related genes (n=1,243)&lt;/div&gt;&lt;div style=&quot;text-align: center;&quot;&gt;&lt;i&gt;&lt;font style=&quot;font-size: 9px;&quot;&gt;False discovery rate, FDR &amp;lt; 0.01&lt;/font&gt;&lt;/i&gt;&lt;/div&gt;" style="rounded=1;whiteSpace=wrap;html=1;fontSize=10;glass=0;strokeWidth=1;shadow=1;fillColor=#dae8fc;strokeColor=#6c8ebf;align=left;spacing=8;" vertex="1" parent="WIyWlLk6GJQsqaUBKTNV-1">
          <mxGeometry x="223" y="162" width="154" height="70" as="geometry" />
        </mxCell>
        <mxCell id="HCpG3zF6ANzsHjrGuF-1-9" style="edgeStyle=orthogonalEdgeStyle;rounded=0;sketch=1;hachureGap=4;jiggle=2;curveFitting=1;orthogonalLoop=1;jettySize=auto;html=1;exitX=0.5;exitY=1;exitDx=0;exitDy=0;fontFamily=Architects Daughter;fontSource=https%3A%2F%2Ffonts.googleapis.com%2Fcss%3Ffamily%3DArchitects%2BDaughter;" edge="1" parent="WIyWlLk6GJQsqaUBKTNV-1" source="WIyWlLk6GJQsqaUBKTNV-7" target="WIyWlLk6GJQsqaUBKTNV-7">
          <mxGeometry relative="1" as="geometry" />
        </mxCell>
        <mxCell id="HCpG3zF6ANzsHjrGuF-1-10" value="&lt;div&gt;&lt;span style=&quot;background-color: transparent;&quot;&gt;Methylation mQTL&lt;/span&gt;&lt;/div&gt;&lt;div&gt;&lt;span style=&quot;background-color: transparent; color: light-dark(rgb(0, 0, 0), rgb(255, 255, 255));&quot;&gt;- Blood mQTL (n=1,980)&lt;/span&gt;&lt;/div&gt;" style="rounded=1;whiteSpace=wrap;html=1;fontSize=10;glass=0;strokeWidth=1;shadow=1;fillColor=#dae8fc;strokeColor=#6c8ebf;align=left;spacing=23;" vertex="1" parent="WIyWlLk6GJQsqaUBKTNV-1">
          <mxGeometry x="64" y="346" width="154" height="49" as="geometry" />
        </mxCell>
        <mxCell id="HCpG3zF6ANzsHjrGuF-1-17" value="GTEx cross-tissue eQTL&lt;div&gt;- Whole blood eQTL (n=670)&lt;/div&gt;&lt;div&gt;- Kidney eQTL (n=73)&lt;/div&gt;" style="rounded=1;whiteSpace=wrap;html=1;fontSize=10;glass=0;strokeWidth=1;shadow=1;fillColor=#dae8fc;strokeColor=#6c8ebf;align=left;spacing=14;" vertex="1" parent="WIyWlLk6GJQsqaUBKTNV-1">
          <mxGeometry x="223" y="347" width="154" height="47" as="geometry" />
        </mxCell>
        <mxCell id="HCpG3zF6ANzsHjrGuF-1-19" value="1000 Genomes Project Consortium (European population)" style="rounded=1;whiteSpace=wrap;html=1;fontSize=10;glass=0;strokeWidth=1;shadow=1;fillColor=#dae8fc;strokeColor=#6c8ebf;" vertex="1" parent="WIyWlLk6GJQsqaUBKTNV-1">
          <mxGeometry x="64" y="415" width="313" height="27" as="geometry" />
        </mxCell>
        <mxCell id="HCpG3zF6ANzsHjrGuF-1-20" value="" style="endArrow=classic;html=1;rounded=0;hachureGap=4;fontFamily=Architects Daughter;fontSource=https%3A%2F%2Ffonts.googleapis.com%2Fcss%3Ffamily%3DArchitects%2BDaughter;fillColor=#dae8fc;strokeColor=#6c8ebf;entryX=0.783;entryY=0.007;entryDx=0;entryDy=0;entryPerimeter=0;exitX=0.556;exitY=1;exitDx=0;exitDy=0;exitPerimeter=0;" edge="1" parent="WIyWlLk6GJQsqaUBKTNV-1" source="HCpG3zF6ANzsHjrGuF-1-17" target="HCpG3zF6ANzsHjrGuF-1-19">
          <mxGeometry width="50" height="50" relative="1" as="geometry">
            <mxPoint x="301" y="396" as="sourcePoint" />
            <mxPoint x="351" y="346" as="targetPoint" />
            <Array as="points">
              <mxPoint x="309" y="404" />
            </Array>
          </mxGeometry>
        </mxCell>
        <mxCell id="HCpG3zF6ANzsHjrGuF-1-22" value="Separation and confirmation of genetic instrumental variants" style="rounded=1;whiteSpace=wrap;html=1;fontSize=10;glass=0;strokeWidth=1;shadow=1;fillColor=#dae8fc;strokeColor=#6c8ebf;" vertex="1" parent="WIyWlLk6GJQsqaUBKTNV-1">
          <mxGeometry x="67" y="490" width="313" height="27" as="geometry" />
        </mxCell>
        <mxCell id="HCpG3zF6ANzsHjrGuF-1-23" value="- Glom-related mQTL&amp;nbsp;&lt;div&gt;- Tube-related mQTL&lt;/div&gt;" style="rounded=1;whiteSpace=wrap;html=1;fontSize=10;glass=0;strokeWidth=1;shadow=1;fillColor=#dae8fc;strokeColor=#6c8ebf;align=left;spacing=23;" vertex="1" parent="WIyWlLk6GJQsqaUBKTNV-1">
          <mxGeometry x="67" y="537" width="154" height="49" as="geometry" />
        </mxCell>
        <mxCell id="HCpG3zF6ANzsHjrGuF-1-24" value="-Glom-kidney/blood eQTL&amp;nbsp;&lt;div&gt;-Tube-kidney/blood eQTL&lt;/div&gt;" style="rounded=1;whiteSpace=wrap;html=1;fontSize=10;glass=0;strokeWidth=1;shadow=1;fillColor=#dae8fc;strokeColor=#6c8ebf;align=left;spacing=14;" vertex="1" parent="WIyWlLk6GJQsqaUBKTNV-1">
          <mxGeometry x="226" y="538" width="154" height="47" as="geometry" />
        </mxCell>
        <mxCell id="HCpG3zF6ANzsHjrGuF-1-25" value="" style="points=[];aspect=fixed;html=1;align=center;shadow=1;dashed=0;fillColor=#f8cecc;strokeColor=#b85450;shape=mxgraph.alibaba_cloud.logic_composer;hachureGap=4;fontFamily=Architects Daughter;fontSource=https%3A%2F%2Ffonts.googleapis.com%2Fcss%3Ffamily%3DArchitects%2BDaughter;" vertex="1" parent="WIyWlLk6GJQsqaUBKTNV-1">
          <mxGeometry x="205.25" y="457" width="36.75" height="36.54" as="geometry" />
        </mxCell>
        <mxCell id="HCpG3zF6ANzsHjrGuF-1-27" value="" style="sketch=0;pointerEvents=1;shadow=1;dashed=0;html=1;strokeColor=#b85450;fillColor=#f8cecc;labelPosition=center;verticalLabelPosition=bottom;verticalAlign=top;outlineConnect=0;align=center;shape=mxgraph.office.concepts.web_conferencing;hachureGap=4;jiggle=2;curveFitting=1;fontFamily=Architects Daughter;fontSource=https%3A%2F%2Ffonts.googleapis.com%2Fcss%3Ffamily%3DArchitects%2BDaughter;" vertex="1" parent="WIyWlLk6GJQsqaUBKTNV-1">
          <mxGeometry x="200.13" y="235" width="47" height="39" as="geometry" />
        </mxCell>
      </root>
    </mxGraphModel>
  </diagram>
</mxfile>
